<?xml version="1.0" standalone="no"?>
<!DOCTYPE svg PUBLIC "-//W3C//DTD SVG 20010904//EN"
 "http://www.w3.org/TR/2001/REC-SVG-20010904/DTD/svg10.dtd">
<svg version="1.0" xmlns="http://www.w3.org/2000/svg"
 width="612.000000pt" height="599.000000pt" viewBox="0 0 612.000000 599.000000"
 preserveAspectRatio="xMidYMid meet">

<g transform="translate(0.000000,599.000000) scale(0.100000,-0.100000)"
fill="#000000" stroke="none">
<path d="M2482 5359 c-24 -4 -69 -20 -100 -34 -161 -74 -252 -222 -252 -410
l0 -84 -302 -3 c-342 -3 -352 -5 -440 -86 -56 -52 -88 -117 -101 -206 -13 -87
3 -148 46 -180 l28 -21 1676 -3 c1133 -1 1687 1 1714 8 24 7 46 22 61 43 20
28 23 43 21 114 -2 126 -55 225 -151 285 -66 41 -123 48 -389 48 l-253 0 0 53
c0 193 -88 351 -237 430 -37 19 -95 40 -127 46 -71 13 -1128 13 -1194 0z
m1147 -260 c97 -22 141 -84 141 -199 l0 -70 -690 0 -690 0 0 65 c0 36 6 80 14
98 20 48 74 95 120 106 57 13 1049 13 1105 0z"/>
<path d="M1492 4095 c-16 -14 -33 -36 -36 -50 -4 -14 3 -148 14 -298 18 -252
45 -622 135 -1852 19 -264 42 -577 51 -695 21 -294 41 -357 147 -458 62 -57
113 -86 194 -107 88 -23 2040 -22 2128 1 158 40 284 172 314 327 5 29 19 180
31 337 11 157 43 593 70 970 27 377 66 901 85 1165 19 264 37 504 40 533 6 62
-11 110 -48 135 -25 16 -132 17 -1561 17 l-1534 0 -30 -25z m789 -353 c31 -35
24 102 74 -1461 30 -947 33 -1077 20 -1102 -31 -59 -99 -77 -149 -38 -51 40
-43 -87 -91 1429 -13 432 -27 864 -31 960 -6 171 -6 176 16 203 13 16 32 33
44 38 36 15 89 2 117 -29z m829 23 c16 -8 34 -24 40 -34 7 -13 10 -435 10
-1283 0 -1182 -2 -1264 -18 -1284 -36 -45 -82 -55 -133 -28 -62 32 -59 -33
-59 1312 0 888 3 1238 11 1261 13 36 61 71 97 71 13 0 36 -7 52 -15z m854 -6
c15 -12 32 -33 37 -47 9 -22 -10 -800 -51 -2112 -5 -173 -10 -337 -10 -364 0
-41 -5 -53 -34 -82 -48 -48 -95 -47 -143 1 l-36 36 7 207 c4 114 16 520 26
902 36 1258 41 1403 50 1421 31 57 107 75 154 38z"/>
</g>
</svg>
